<!DOCTYPE svg PUBLIC "-//W3C//DTD SVG 1.1//EN" "http://www.w3.org/Graphics/SVG/1.1/DTD/svg11.dtd">
<!-- Uploaded to: SVG Repo, www.svgrepo.com, Transformed by: SVG Repo Mixer Tools -->
<svg width="800px" height="800px" viewBox="0 0 24 24" fill="none" xmlns="http://www.w3.org/2000/svg">
<g id="SVGRepo_bgCarrier" stroke-width="0"/>
<g id="SVGRepo_tracerCarrier" stroke-linecap="round" stroke-linejoin="round"/>
<g id="SVGRepo_iconCarrier"> <path d="M18.41 18.09L15.59 20.91" stroke="#080f72" stroke-width="0.8399999999999999" stroke-linecap="round" stroke-linejoin="round"/> <path d="M18.41 20.91L15.59 18.09" stroke="#080f72" stroke-width="0.8399999999999999" stroke-linecap="round" stroke-linejoin="round"/> <path d="M12.1601 10.87C12.0601 10.86 11.9401 10.86 11.8301 10.87C9.45006 10.79 7.56006 8.84 7.56006 6.44C7.56006 3.99 9.54006 2 12.0001 2C14.4501 2 16.4401 3.99 16.4401 6.44C16.4301 8.84 14.5401 10.79 12.1601 10.87Z" stroke="#080f72" stroke-width="0.8399999999999999" stroke-linecap="round" stroke-linejoin="round"/> <path d="M12 21.8101C10.18 21.8101 8.37005 21.3501 6.99005 20.4301C4.57005 18.8101 4.57005 16.1701 6.99005 14.5601C9.74005 12.7201 14.25 12.7201 17 14.5601" stroke="#080f72" stroke-width="0.8399999999999999" stroke-linecap="round" stroke-linejoin="round"/> </g>
</svg>